<svg xmlns="http://www.w3.org/2000/svg" viewBox="0 0 1200 360" role="img" aria-labelledby="title desc">
  <title id="title">Memories' Events</title>
  <desc id="desc">Camera and heart emblem with floral accents and the Memories' Events wordmark.</desc>
  <defs>
    <linearGradient id="heart" x1="0" y1="0" x2="1" y2="1">
      <stop offset="0" stop-color="#f2b5aa"/>
      <stop offset="1" stop-color="#db8f85"/>
    </linearGradient>
  </defs>
  <g transform="translate(28 38)">
    <path d="M92 155c-38-38-39-96-6-123 29-24 72-17 98 19 26-40 72-50 104-22 29 26 29 69 12 100" fill="none" stroke="#776d63" stroke-width="8" stroke-linecap="round"/>
    <path d="M54 185c24 31 57 50 95 57 35 7 85 3 129-18 34-16 63-31 86-20 25 12 26 42 6 58-27 22-76 8-123-5-66-18-127-39-178-86" fill="none" stroke="#776d63" stroke-width="7" stroke-linecap="round"/>
    <g transform="translate(104 88)" fill="none" stroke="#453f39" stroke-width="10" stroke-linejoin="round">
      <path d="M20 47h35l16-24h74l16 24h39c14 0 25 11 25 25v95H0V72c0-14 9-25 20-25z"/>
      <circle cx="113" cy="105" r="49"/>
      <circle cx="190" cy="73" r="6" fill="#453f39"/>
    </g>
    <path d="M214 174c-18-24-52-2-52 22 0 25 52 56 52 56s52-31 52-56c0-24-34-46-52-22z" fill="url(#heart)" transform="translate(-20 -20) scale(.55) translate(165 160)"/>
    <g fill="#a5ac8d" stroke="#7d846c" stroke-width="2">
      <path d="M48 206c17-8 25-25 24-46-17 8-26 24-24 46z"/>
      <path d="M72 232c22-2 37-14 46-35-21 1-37 14-46 35z"/>
      <path d="M98 250c22 3 41-5 55-24-21-3-40 5-55 24z"/>
    </g>
    <g fill="#e7a198">
      <circle cx="75" cy="188" r="10"/><circle cx="92" cy="179" r="8"/><circle cx="95" cy="201" r="7"/>
      <circle cx="104" cy="223" r="9"/><circle cx="121" cy="218" r="7"/>
    </g>
  </g>
  <g transform="translate(392 70)" fill="#3e3934">
    <text x="0" y="120" font-family="Georgia, 'Times New Roman', serif" font-size="122" letter-spacing="-4">Memories'</text>
    <line x1="18" y1="172" x2="190" y2="172" stroke="#c5b5a8" stroke-width="4"/>
    <text x="220" y="190" font-family="Arial, sans-serif" font-size="64" letter-spacing="24">EVENTS</text>
    <line x1="635" y1="172" x2="790" y2="172" stroke="#c5b5a8" stroke-width="4"/>
    <text x="52" y="258" font-family="Arial, sans-serif" font-size="24" letter-spacing="11" fill="#7e756d">SHARE TODAY. TREASURE FOREVER.</text>
  </g>
</svg>
